<?xml version="1.0" encoding="utf-8"?>
<!-- Generator: Adobe Illustrator 16.0.0, SVG Export Plug-In . SVG Version: 6.00 Build 0)  -->
<!DOCTYPE svg PUBLIC "-//W3C//DTD SVG 1.1//EN" "http://www.w3.org/Graphics/SVG/1.1/DTD/svg11.dtd">
<svg version="1.1" id="Layer_1" xmlns="http://www.w3.org/2000/svg" xmlns:xlink="http://www.w3.org/1999/xlink" x="0px" y="0px"
     width="489.6px" height="489.6px" viewBox="0 0 489.6 489.6" enable-background="new 0 0 489.6 489.6" xml:space="preserve">
<rect fill-rule="evenodd" clip-rule="evenodd" fill="#000D2B" width="489.6" height="489.6"/>
    <path fill-rule="evenodd" clip-rule="evenodd" fill="#18DB90" d="M114.932,217.292l-10.531-6.082v-12.162l4.88,2.817
	c3.594,2.075,5.651,5.639,5.651,9.788V217.292z M98.082,214.858l16.851,9.729v19.458l-16.851-9.729V214.858l-16.852-9.729v-19.458
	l16.852,9.729V214.858z M86.882,287.734l23.75,13.712c2.947,1.701,5.865,2.483,9.267,2.483h52.925l-16.195-28.051
	c-2.086-3.612-5.638-5.651-9.788-5.651h-31.909v-18.885l-23.17-13.378v-19.458l-10.532-6.082v65.522
	C81.23,282.096,83.37,285.706,86.882,287.734z"/>
    <path fill-rule="evenodd" clip-rule="evenodd" fill="#30A679" d="M114.933,270.227v28.735c0,2.731,2.234,4.967,4.966,4.967h52.925
	l-16.195-28.051c-2.086-3.612-5.638-5.651-9.788-5.651H114.933z"/>
    <path fill="#FFFFFF" d="M393.94,299.391v-22.055h14.348v3.351h-10.351v5.989h9.603v3.346h-9.603v6.019h10.432v3.351H393.94z
	 M377.939,289.4l5.458,9.991h-4.457l-5.362-9.991H377.939z M366.543,299.391v-22.055h8.273c1.692,0,3.118,0.298,4.271,0.884
	c1.152,0.592,2.021,1.416,2.612,2.472c0.597,1.062,0.89,2.295,0.89,3.699c0,1.416-0.299,2.639-0.899,3.68
	c-0.597,1.036-1.48,1.834-2.644,2.4c-1.162,0.562-2.593,0.844-4.285,0.844h-5.888V288h5.352c0.99,0,1.8-0.142,2.432-0.414
	c0.631-0.278,1.102-0.682,1.404-1.218c0.309-0.536,0.46-1.193,0.46-1.977s-0.156-1.45-0.465-2.006
	c-0.309-0.557-0.778-0.98-1.41-1.274c-0.632-0.287-1.445-0.434-2.446-0.434h-3.658v18.714H366.543z M339.904,290.744h11.628v3.21
	h-11.628V290.744z M339.763,299.391h-4.266l7.763-22.055h4.933l7.772,22.055h-4.26l-5.894-17.531h-0.172L339.763,299.391z
	 M305.441,299.391l-6.227-22.055h4.296l3.978,16.208h0.202l4.245-16.208h3.906l4.256,16.218h0.191l3.973-16.218h4.296l-6.222,22.055
	h-3.941l-4.418-15.475h-0.171l-4.423,15.475H305.441z M272.151,280.687v-3.351h17.592v3.351h-6.817v18.704h-3.962v-18.704H272.151z
	 M247.69,299.391v-22.055h14.13v3.351h-10.133v5.989h9.163v3.346h-9.163v9.369H247.69z M232.215,288.364
	c0-1.673-0.263-3.083-0.783-4.235s-1.238-2.026-2.158-2.618c-0.919-0.591-1.976-0.889-3.174-0.889c-1.203,0-2.259,0.298-3.179,0.889
	c-0.92,0.592-1.637,1.466-2.158,2.618c-0.521,1.152-0.784,2.563-0.784,4.235s0.263,3.088,0.784,4.24
	c0.521,1.152,1.238,2.021,2.158,2.613c0.92,0.596,1.976,0.889,3.179,0.889c1.198,0,2.254-0.293,3.174-0.889
	c0.92-0.592,1.638-1.461,2.158-2.613S232.215,290.037,232.215,288.364z M236.233,288.364c0,2.375-0.445,4.412-1.334,6.1
	c-0.885,1.693-2.092,2.987-3.619,3.882c-1.521,0.899-3.25,1.35-5.18,1.35c-1.936,0-3.659-0.455-5.185-1.354
	c-1.526-0.899-2.734-2.193-3.619-3.887c-0.889-1.688-1.329-3.72-1.329-6.09c0-2.375,0.44-4.407,1.329-6.1
	c0.885-1.688,2.092-2.982,3.619-3.882c1.526-0.899,3.25-1.344,5.185-1.344c1.931,0,3.659,0.444,5.18,1.344
	c1.526,0.899,2.734,2.193,3.619,3.882C235.788,283.957,236.233,285.989,236.233,288.364z M201.154,283.401
	c-0.101-0.94-0.521-1.673-1.264-2.198c-0.743-0.521-1.708-0.783-2.896-0.783c-0.829,0-1.547,0.126-2.143,0.374
	c-0.592,0.252-1.051,0.591-1.365,1.025c-0.318,0.43-0.48,0.92-0.485,1.476c0,0.46,0.106,0.854,0.318,1.193
	c0.212,0.338,0.5,0.621,0.864,0.858c0.369,0.232,0.773,0.425,1.218,0.587c0.444,0.156,0.894,0.288,1.344,0.394l2.072,0.521
	c0.829,0.192,1.632,0.455,2.406,0.784c0.768,0.333,1.46,0.748,2.077,1.248c0.611,0.506,1.102,1.111,1.46,1.824
	c0.359,0.708,0.536,1.542,0.536,2.497c0,1.294-0.329,2.426-0.99,3.405c-0.663,0.98-1.613,1.744-2.861,2.295
	c-1.243,0.551-2.749,0.824-4.513,0.824c-1.718,0-3.204-0.263-4.467-0.799c-1.259-0.53-2.239-1.304-2.946-2.325
	c-0.708-1.021-1.092-2.259-1.147-3.724h3.927c0.061,0.768,0.298,1.404,0.712,1.915c0.415,0.51,0.96,0.89,1.633,1.143
	c0.672,0.252,1.42,0.378,2.254,0.378c0.869,0,1.632-0.131,2.289-0.394c0.657-0.263,1.173-0.627,1.547-1.097
	c0.374-0.471,0.561-1.026,0.571-1.658c-0.01-0.57-0.177-1.046-0.505-1.425c-0.333-0.374-0.793-0.692-1.385-0.945
	c-0.591-0.258-1.284-0.484-2.072-0.688l-2.512-0.646c-1.814-0.465-3.25-1.173-4.301-2.123c-1.051-0.955-1.577-2.218-1.577-3.795
	c0-1.299,0.354-2.441,1.062-3.416c0.708-0.976,1.667-1.733,2.891-2.274c1.218-0.546,2.603-0.813,4.145-0.813
	c1.566,0,2.936,0.268,4.119,0.813c1.183,0.541,2.107,1.289,2.784,2.249c0.672,0.955,1.021,2.057,1.046,3.3H201.154z"/>
    <path fill="#FFFFFF" d="M329.324,219.991l-16.021-24.199h-11.581l21.811,32.946l-21.811,32.947h11.581
	c14.541-21.964,29.081-43.929,43.622-65.893h-11.581L329.324,219.991z M366.665,261.685v-65.893h41.312v8.561h-31.361v20.082h29.202
	v8.516h-29.202v20.172h31.754v8.562H366.665z M281.867,195.792h9.98v43.335c0,4.62-1.087,8.697-3.246,12.246
	c-2.175,3.548-5.209,6.342-9.135,8.364c-3.926,2.024-8.531,3.035-13.801,3.035c-5.255,0-9.845-1.011-13.771-3.035
	c-3.926-2.022-6.977-4.816-9.136-8.364c-2.174-3.549-3.261-7.625-3.261-12.246v-43.335h9.951v42.535
	c0,2.989,0.649,5.632,1.978,7.942c1.313,2.325,3.187,4.137,5.617,5.466c2.416,1.313,5.284,1.978,8.622,1.978
	c3.337,0,6.235-0.664,8.666-1.978c2.432-1.329,4.304-3.141,5.603-5.466c1.299-2.311,1.933-4.953,1.933-7.942V195.792z
	 M188.373,261.685v-65.893h9.95v57.332h29.851v8.562H188.373z"/>
    <polygon fill-rule="evenodd" clip-rule="evenodd" fill="#18DB90" points="338.078,233.215 332.288,241.963 345.345,261.685
	356.926,261.685 "/>
</svg>